<svg xmlns="http://www.w3.org/2000/svg" width="500" height="500" viewBox="0 0 500 500">
<path d="M 323.22 427.00 L 323.50 436.50 L 309.23 436.78 C298.33,436.99 294.87,436.75 294.56,435.78 C294.35,435.07 293.91,429.10 293.59,422.50 C292.98,409.98 289.34,384.94 286.59,374.32 C279.94,348.71 264.12,314.28 250.60,296.00 C247.55,291.88 243.53,286.25 241.67,283.50 C234.86,273.41 212.43,250.52 200.93,241.92 C198.41,240.04 193.46,236.31 189.93,233.64 C174.31,221.83 144.89,206.79 122.50,199.17 C104.35,192.99 77.19,188.43 48.50,186.74 L 44.50 186.50 L 44.21 174.50 C44.19,173.52 44.16,172.61 44.14,171.74 C43.93,163.92 43.84,160.53 45.48,159.07 C46.72,157.96 48.97,157.98 52.94,158.00 C53.51,158.00 54.12,158.01 54.77,158.01 C72.50,158.02 105.50,163.07 122.87,168.43 C169.21,182.73 207.40,205.28 240.23,237.74 L 249.96 247.35 L 260.73 236.88 C272.53,225.39 285.35,214.95 300.00,204.88 C310.99,197.33 337.52,182.93 347.00,179.37 C376.51,168.29 384.36,165.93 401.50,162.98 C421.91,159.47 434.95,158.00 445.69,158.00 L 456.00 158.00 L 456.00 186.69 L 444.25 187.33 C431.48,188.02 415.54,190.11 404.50,192.54 C400.65,193.38 395.25,194.51 392.50,195.05 C377.17,198.04 345.71,211.31 327.54,222.45 C315.83,229.64 312.23,232.15 297.51,243.43 C290.99,248.42 272.40,266.43 270.89,269.23 C269.97,270.93 272.12,274.78 285.18,294.85 C287.20,297.96 288.89,301.26 288.93,302.19 C288.97,303.12 289.46,304.17 290.03,304.52 C293.45,306.63 307.58,340.76 313.47,361.13 C319.01,380.27 322.56,404.27 323.22,427.00 Z" fill="rgb(45,118,101)"/>
<path d="M 264.86 433.50 L 264.50 436.50 L 250.44 436.78 C242.71,436.93 236.07,436.74 235.69,436.36 C235.31,435.98 235.00,432.61 235.00,428.87 C235.00,415.29 231.62,396.88 224.84,373.50 C222.27,364.64 208.48,338.17 200.61,327.00 C190.30,312.35 170.25,292.03 156.00,281.77 C126.49,260.52 84.00,246.00 51.32,246.00 L 45.09 246.00 L 44.48 242.74 C44.14,240.94 44.01,234.30 44.18,227.99 L 44.50 216.50 L 54.50 216.82 C76.53,217.53 106.01,223.63 125.26,231.46 C136.87,236.19 152.57,244.08 159.41,248.63 C162.60,250.76 167.50,253.94 170.28,255.69 C182.96,263.69 204.54,283.95 217.03,299.58 C224.89,309.42 242.00,336.14 242.00,338.58 C242.00,338.81 243.97,343.38 246.38,348.74 C253.00,363.52 256.61,374.97 259.85,391.50 C262.94,407.28 265.46,428.43 264.86,433.50 Z" fill="rgb(45,118,101)"/>
<path d="M 204.70 426.75 L 205.30 437.00 L 191.12 437.00 C180.67,437.00 176.82,436.67 176.51,435.75 C176.27,435.06 175.60,430.05 175.02,424.61 C174.44,419.17 173.24,411.54 172.36,407.67 C170.57,399.81 164.50,382.86 161.00,375.98 C154.92,364.01 135.62,340.55 127.07,334.74 C124.56,333.03 120.66,330.15 118.41,328.33 C105.10,317.57 71.57,306.00 53.67,306.00 C53.20,306.00 52.75,306.00 52.33,306.00 C48.70,306.02 46.64,306.02 45.49,305.01 C43.98,303.69 43.99,300.65 44.01,293.64 C44.01,293.01 44.01,292.34 44.02,291.64 C44.02,284.41 44.43,277.87 44.91,277.11 C46.05,275.32 61.17,276.28 75.00,279.01 C112.02,286.34 143.59,305.10 168.62,334.64 C188.82,358.47 202.78,394.12 204.70,426.75 Z" fill="rgb(45,118,101)"/>
<path d="M 267.05 190.31 C261.80,195.36 256.15,201.17 254.50,203.22 L 251.50 206.93 L 239.30 194.59 C232.59,187.80 223.59,179.87 219.30,176.96 C215.01,174.06 210.30,170.68 208.82,169.47 C207.35,168.25 198.35,163.37 188.82,158.61 C171.62,150.03 149.88,142.33 133.10,138.86 C129.62,138.14 126.55,137.00 126.29,136.32 C125.60,134.51 135.73,119.71 143.80,110.74 C151.89,101.75 165.91,89.91 173.93,85.30 C193.38,74.12 203.63,70.19 224.50,65.90 C233.19,64.11 237.06,63.91 254.00,64.30 C271.71,64.72 274.64,65.05 285.94,67.91 C313.49,74.89 337.63,89.66 357.70,111.79 C361.66,116.16 366.27,122.06 367.94,124.89 C369.61,127.73 371.94,131.35 373.11,132.93 C375.42,136.06 374.98,138.00 371.95,138.00 C364.55,138.00 328.55,150.18 313.50,157.78 C302.05,163.55 289.46,171.08 288.00,173.01 C287.73,173.38 285.05,175.35 282.05,177.40 C279.05,179.44 272.30,185.26 267.05,190.31 Z" fill="rgb(241,150,85)"/>
</svg>